<svg width="70" height="84" viewBox="0 0 70 84" fill="none" xmlns="http://www.w3.org/2000/svg">
<g id="Group 36">
<path id="path1" d="M9.21997 46.6439C8.35627 46.6439 7.7085 47.274 7.7085 48.0092C7.7085 48.8493 8.35627 49.4794 9.11201 49.4794H9.21997H47.9784C48.9501 49.4794 49.8138 48.9543 50.3536 48.2192L50.6775 47.9042C51.0014 47.5891 51.0014 47.169 50.6775 46.854C50.4616 46.6439 50.2457 46.5389 49.9218 46.6439H9.21997Z" fill="#6E7764"/>
<path id="path2" d="M9.20868 36.9912C8.35143 36.9912 7.7085 37.5991 7.7085 38.5718C7.7085 39.5444 8.24427 40.274 9.10152 40.274H9.20868H49.7135C50.6779 40.1524 51.5351 39.666 52.1781 38.8149L52.3924 38.3286C52.7138 37.9639 52.7138 37.4775 52.4995 37.1128C52.2852 36.8696 52.0709 36.748 51.7494 36.8696H9.20868V36.9912Z" fill="#6E7764"/>
<path id="path3" d="M9.21403 55.4022C8.35373 55.4022 7.7085 56.1317 7.7085 56.9828C7.7085 57.9555 8.35373 58.685 9.1065 58.685H9.21403H42.3359C43.3038 58.685 44.1641 58.077 44.7018 57.226L44.9169 56.7396C45.2395 56.3749 45.2395 55.8885 44.9169 55.5238C44.7018 55.2806 44.4867 55.159 44.1641 55.2806H9.21403V55.4022Z" fill="#6E7764"/>
<path id="path4" d="M9.22302 64.0323C8.35758 64.0323 7.7085 64.7618 7.7085 65.6129C7.7085 66.5856 8.35758 67.3151 9.11484 67.3151H9.22302H37.1337C38.1073 67.3151 38.9727 66.7072 39.5136 65.8561L39.73 65.3697C40.0545 65.005 40.0545 64.5187 39.73 64.1539C39.5136 63.9107 39.2973 63.7892 38.9727 63.9107H9.22302V64.0323Z" fill="#6E7764"/>
<path id="path6" d="M54.9445 56.7766L53.2343 59.6046V78.3126C53.2343 78.7477 52.9325 79.1827 52.4295 79.1827H4.94667C4.54427 79.1827 4.14188 78.8564 4.14188 78.3126V5.22084C4.14188 4.78577 4.44367 4.3507 4.94667 4.3507H40.9612V16.7502C40.9612 17.9466 41.8666 18.9255 42.9732 18.9255H53.2343V38.9388L53.6367 38.1774L55.6487 34.9144L56.8558 32.8478C56.9564 32.739 57.057 32.5215 57.1576 32.4127V15.8801L43.778 0H4.94667C2.33109 0 0.218506 2.28412 0.218506 5.11207V78.3126C0.218506 81.1405 2.33109 83.4247 4.94667 83.4247H52.5301C55.1457 83.4247 57.2582 81.1405 57.2582 78.3126V53.0785L56.9564 53.5136L54.9445 56.7766ZM44.8845 7.72249L50.8199 14.6836H44.8845V7.72249Z" fill="#6E7764"/>
<path id="path7" d="M68.8879 38.7405C68.457 37.8354 67.8108 37.1566 67.0568 36.5909C65.118 35.3465 62.8561 35.3465 61.7789 36.7041C61.6712 36.8172 61.5635 36.9303 61.4558 37.0435L60.3787 38.7405L58.6553 41.4557L58.3322 42.0214L55.5317 46.5468L53.8083 49.262L50.7924 54.0136L49.1767 56.842L46.0531 61.8199L44.222 64.7614L44.0066 65.1008L47.8842 67.7029L51.5464 70.1918L54.8854 64.8745L56.8242 61.8199L58.4399 59.2178L59.8401 56.842L61.5635 54.1267L61.7789 53.6742L64.4717 49.262L66.1951 46.5468L68.9956 42.1345C69.1033 41.9083 69.211 41.682 69.3187 41.4557C69.4264 40.5506 69.3187 39.6456 68.8879 38.7405Z" fill="#6E7764"/>
<path id="polygon7" d="M46.5993 69.1957L43.405 67.0746L42.8542 66.7397L42.9644 68.191L43.0745 69.3073L43.1847 70.4237L43.405 74.2192L46.9297 72.9912L50.3443 71.6516L49.6834 71.2051L46.5993 69.1957Z" fill="#6E7764"/>
</g>
</svg>
