<svg width="59" height="84" viewBox="0 0 59 84" fill="none" xmlns="http://www.w3.org/2000/svg">
<g id="Group 14">
<path id="path1" d="M14.5967 84H53.8202C56.4622 84 58.5961 81.7001 58.5961 78.8527V5.14733C58.5961 2.29987 56.4622 0 53.8202 0H5.75615C3.11415 0 0.980225 2.29987 0.980225 5.14733V68.1199L14.5967 84ZM13.4789 76.3338L7.48361 69.3247H13.4789V76.3338ZM5.04484 5.14733C5.04484 4.70926 5.34968 4.27119 5.85776 4.27119H53.9218C54.3283 4.27119 54.7347 4.59974 54.7347 5.14733V78.8527C54.7347 79.2907 54.4299 79.7288 53.9218 79.7288H17.4419V67.1343C17.4419 65.9296 16.5274 64.9439 15.4096 64.9439H5.04484V5.14733ZM47.012 52.7875H12.8692C12.0563 52.7875 11.345 52.0209 11.345 51.1447C11.345 50.2686 12.0563 49.502 12.8692 49.502H46.9104C47.7233 49.502 48.4346 50.2686 48.4346 51.1447C48.5362 52.0209 47.8249 52.7875 47.012 52.7875ZM11.4466 40.3025C11.4466 39.4263 12.1579 38.6597 12.9708 38.6597H47.012C47.8249 38.6597 48.5362 39.4263 48.5362 40.3025C48.5362 41.1786 47.8249 41.9452 47.012 41.9452H12.8692C12.0563 41.8357 11.4466 41.1786 11.4466 40.3025ZM11.4466 29.6793C11.4466 28.8031 12.1579 28.0365 12.9708 28.0365H47.012C47.8249 28.0365 48.5362 28.8031 48.5362 29.6793C48.5362 30.5554 47.8249 31.322 47.012 31.322H12.8692C12.0563 31.322 11.4466 30.6649 11.4466 29.6793ZM18.7629 19.0561C18.6613 18.399 19.0678 17.6323 19.6774 17.4133H40.3054C41.1183 17.8514 41.4231 18.9465 41.0167 19.9322C40.8134 20.2608 40.6102 20.4798 40.3054 20.6988H19.6774C18.9661 20.3703 18.6613 19.7132 18.7629 19.0561Z" fill="#6E7764"/>
<g id="g3">
<path id="path2" d="M47.3772 68.6674C47.1737 70.3102 46.1562 71.7339 44.7318 72.2815C43.2055 72.9386 41.6793 72.5005 40.4583 71.5149L38.0164 72.5005C39.7461 74.8004 42.7985 75.7861 45.5457 74.6909C48.293 73.5957 49.9209 70.6387 49.8192 67.6818L47.3772 68.6674Z" fill="#6E7764"/>
<path id="path3" d="M41.6792 63.739C43.4089 63.0819 45.2404 63.6295 46.3596 65.0532L48.6998 64.0676C47.0718 61.3296 43.8159 60.1249 40.8652 61.3296C37.9145 62.5343 36.1848 65.7103 36.6935 68.9959L39.0337 68.0102C38.932 66.2579 39.9494 64.5056 41.6792 63.739Z" fill="#6E7764"/>
</g>
<path id="rect3" d="M49.0194 65.07L36.9282 69.9784L37.5027 71.618L49.5939 66.7096L49.0194 65.07Z" fill="#6E7764"/>
</g>
</svg>
