<svg width="87" height="84" viewBox="0 0 87 84" fill="none" xmlns="http://www.w3.org/2000/svg">
<g id="Icon">
<path id="path1" d="M52.4245 0C34.0142 0 18.9716 12.1346 17.9613 27.3324C7.18452 30.9846 0 39.7027 0 49.4811C0.224516 56.6676 3.70452 63.2651 9.42968 67.2707V82.5863C9.42968 83.2931 9.99097 84 10.7768 84C11.1135 84 11.4503 83.8822 11.6748 83.6466L22.7884 72.9257C24.6968 73.2791 26.6052 73.3969 28.6258 73.3969C40.7497 73.3969 51.5264 67.0351 55.5677 57.4923C56.9148 57.3745 58.2619 57.2567 59.609 57.021L73.3045 70.3338C73.8658 70.805 74.6516 70.8051 75.1006 70.216C75.3252 69.9804 75.4374 69.6269 75.4374 69.2735V50.4236C82.7342 45.0042 87 37.1108 87 28.864C87 12.9593 71.5084 0 52.4245 0ZM29.7484 68.6844C27.84 68.6844 26.0439 68.5666 24.2477 68.2132C23.911 68.0954 23.4619 68.2132 23.2374 68.5666L14.369 76.9313V64.9145C14.369 64.4432 14.1445 64.0898 13.8077 63.8541C8.53161 60.0842 5.50064 54.6648 5.50064 49.0098C5.50064 41.352 11.1135 34.2833 19.6452 31.1024C19.7574 32.2805 19.8697 33.3408 20.2065 34.5189C21.4413 39.7027 24.1355 44.2973 27.9523 47.7139C28.1768 47.9495 36.3716 56.432 51.8632 56.5498C48.271 63.8541 39.6271 68.6844 29.7484 68.6844ZM71.2839 48.0673C70.9471 48.3029 70.7226 48.6564 70.7226 49.1276V64.4432L59.609 53.7223C59.3845 53.4867 59.0477 53.3689 58.8232 53.3689H58.5987C56.4658 53.8401 54.3329 53.9579 52.2 53.9579C40.5252 53.9579 33.4529 49.2454 29.9729 46.1823C26.4929 43.0014 23.911 38.7602 22.5639 34.0477C22.2271 32.6339 22.1148 31.2202 22.1148 29.8064C22.1148 16.4937 35.4735 5.53717 51.8632 5.53717C68.2529 5.53717 81.4994 16.3759 81.4994 29.8064C81.4994 36.8752 77.7948 43.4726 71.2839 48.0673Z" fill="#6E7764"/>
</g>
</svg>
