<svg width="59" height="84" viewBox="0 0 59 84" fill="none" xmlns="http://www.w3.org/2000/svg">
<g id="Group 8">
<path id="path1" d="M44.9797 0H5.75615C3.11415 0 0.980225 2.29987 0.980225 5.14733V78.8527C0.980225 81.7001 3.11415 84 5.75615 84H53.8202C56.4622 84 58.5961 81.7001 58.5961 78.8527V15.9896L44.9797 0ZM46.0974 7.77575L52.0927 14.7849H46.0974V7.77575ZM54.5315 78.8527C54.5315 79.2907 54.2267 79.7288 53.7186 79.7288H5.75615C5.34969 79.7288 4.94322 79.4003 4.94322 78.8527V5.25684C4.94322 4.81877 5.24807 4.3807 5.75615 4.3807H42.1344V16.8657C42.1344 18.0704 43.049 19.0561 44.1667 19.0561H54.6331L54.5315 78.8527ZM47.6217 35.5932C47.6217 36.4694 46.9104 37.236 46.0974 37.236H12.0563C11.2434 37.236 10.5321 36.4694 10.5321 35.5932C10.5321 34.7171 11.2434 33.9505 12.0563 33.9505H46.0974C46.9104 33.9505 47.6217 34.7171 47.6217 35.5932ZM47.6217 46.1069C47.6217 46.983 46.9104 47.7497 46.0974 47.7497H12.0563C11.2434 47.7497 10.5321 46.983 10.5321 46.1069C10.5321 45.2308 11.2434 44.4641 12.0563 44.4641H46.0974C46.9104 44.4641 47.6217 45.2308 47.6217 46.1069ZM31.3632 56.8396C31.4648 57.4967 31.16 58.2634 30.5503 58.4824H11.345C10.5321 57.9348 10.2272 56.7301 10.7353 55.854C10.8369 55.6349 11.0401 55.4159 11.345 55.1969H30.4487C31.0584 55.4159 31.4648 56.1825 31.3632 56.8396Z" fill="#6E7764"/>
<path id="path2" d="M46.6029 62.8957C49.3038 59.3729 48.8883 54.3087 45.5641 51.3363C42.24 48.3638 37.4616 48.9143 34.6568 52.4372C32.2676 55.5197 32.2676 59.8132 34.6568 62.8957L30.5017 71.0424C30.2939 71.5929 30.3978 72.1433 30.9172 72.4736C31.2288 72.5837 31.5405 72.5837 31.8521 72.4736L34.8646 70.8222L35.1762 74.4552C35.2801 75.0057 35.6956 75.446 36.215 75.3359C36.5267 75.3359 36.8383 75.1158 36.9422 74.7855L40.4741 67.7397L44.0059 74.7855C44.2137 75.3359 44.837 75.446 45.3564 75.2258C45.668 75.1158 45.8758 74.7855 45.8758 74.4552L46.1874 70.8222L49.1999 72.4736C49.7193 72.6938 50.2387 72.5837 50.5503 72.0332C50.6542 71.703 50.6542 71.3727 50.5503 71.0424L46.6029 62.8957ZM40.6818 61.7948C38.5004 61.7948 36.7344 59.9233 36.7344 57.6114C36.7344 55.2995 38.5004 53.428 40.6818 53.428C42.8633 53.428 44.6292 55.2995 44.6292 57.6114C44.6292 59.9233 42.8633 61.7948 40.6818 61.7948Z" fill="#6E7764"/>
</g>
</svg>
