<svg width="83" height="83" viewBox="0 0 83 83" fill="none" xmlns="http://www.w3.org/2000/svg">
<g id="Group 37">
<g id="Vector">
<mask id="path-1-outside-1_3016_853" maskUnits="userSpaceOnUse" x="0" y="0" width="83" height="83" fill="black">
<rect fill="white" width="83" height="83"/>
<path d="M79.4941 52.2638C80.4692 48.8445 81 45.2278 81 41.5C81 29.292 75.433 18.3678 66.7059 11.122C66.6813 11.0973 66.6566 11.0603 66.6319 11.0356C66.6072 11.0233 66.5948 11.0233 66.5702 11.0109C59.7441 5.38219 51.0047 2 41.5 2C34.8838 2 28.6378 3.64172 23.1448 6.5425C23.0708 6.56719 23.0091 6.60422 22.9473 6.64125C11.48 12.7638 3.3825 24.3792 2.17281 37.945C2.16047 37.982 2.16047 38.0191 2.16047 38.0561C2.06172 39.1917 2 40.3397 2 41.5C2 63.2867 19.7256 81 41.5 81C59.4848 81 74.6923 68.9031 79.4447 52.4242C79.457 52.3995 79.4817 52.3748 79.4817 52.3378C79.4941 52.3255 79.4941 52.3008 79.4941 52.2638ZM79.7656 41.5C79.7656 44.9439 79.2966 48.2767 78.4448 51.4614C73.5444 50.4492 71.6188 53.708 70.1992 56.1397L70.1005 56.3125C69.1623 57.9048 67.5947 59.0034 65.7925 59.2997C65.4592 59.3491 65.1383 59.3984 64.8173 59.4355C62.9041 59.6453 61.1512 58.4727 60.6575 56.6705C60.0033 54.3128 58.6084 52.4242 57.5592 51.2516C56.7939 50.3998 56.4359 49.2766 56.5841 48.1533C56.7075 47.2028 57.1766 46.3387 57.9048 45.7092L63.262 41.1297C64.5334 40.0434 65.4839 38.8338 66.0764 37.5377C67.0022 35.5009 67.0886 33.6494 66.2986 32.02C64.7927 28.897 60.6452 27.8355 60.3736 27.7737C58.917 27.6503 57.9789 27.243 57.5963 26.5888C57.2136 25.9222 57.3247 24.9223 57.9172 23.6016L66.3603 12.4428C74.5442 19.4541 79.7656 29.8722 79.7656 41.5ZM23.293 7.85094L27.3541 10.6406C29.1809 11.8997 30.835 13.4056 32.2545 15.1214L35.4639 18.985C36.3033 19.8614 36.6489 20.8489 36.4884 21.9105C36.2786 23.3423 35.1059 24.8359 33.5136 25.7247C33.1803 25.9098 32.7606 25.9716 32.3409 25.8975C28.7612 25.2803 26.2431 26.1567 25.5519 28.2675L25.342 28.465C24.9223 28.8723 24.3669 29.0945 23.7744 29.0945H19.2319C17.763 29.0945 16.4175 29.4895 15.3313 30.2302C14.0722 31.0942 12.1959 33.1186 13.887 36.9081C13.8994 36.9452 13.9241 36.9822 13.9488 37.0192L17.1952 41.4383C17.8988 42.3888 18.9109 42.9566 19.9848 42.9936C21.6759 43.0553 23.4287 42.5245 25.0334 41.4753C25.5025 41.1667 26.1197 41.1297 26.6381 41.3889L30.9708 43.5737C31.7361 43.9564 32.5878 44.2033 33.5136 44.3144C34.5381 44.4378 36.4144 44.8452 37.5006 46.24L42.4628 52.6464C42.8578 53.1648 42.7714 53.9055 42.253 54.3005L39.6484 56.3372C38.6239 57.1272 37.8092 58.1764 37.2784 59.3614L35.0689 64.2742C34.8838 64.6692 34.6245 65.0766 34.2912 65.4592C32.6002 67.4342 31.662 69.3105 31.3905 71.2238C31.3041 72.3594 30.7239 72.8902 30.2055 72.9148C29.7981 72.9148 29.5266 72.6309 29.4525 72.1495L28.7489 67.1256C28.4897 65.2987 27.7861 63.5336 26.7122 62.0277L23.5275 57.5839C22.7498 56.4977 22.1944 55.2509 21.8734 53.8808C20.6761 48.7828 18.3308 45.45 15.4423 44.7094C13.1958 44.2033 11.1344 42.6356 10.0358 40.6359C8.66563 38.1302 6.03641 36.797 3.46891 37.2414C4.87609 24.552 12.5292 13.7019 23.293 7.85094ZM41.5 79.7656C20.4045 79.7656 3.23438 62.5955 3.23438 41.5C3.23438 40.5002 3.28375 39.525 3.35781 38.5375C5.50563 38.0191 7.78922 39.1177 8.96187 41.2531C10.2209 43.5614 12.6033 45.3636 15.1584 45.9437C17.5408 46.5486 19.6022 49.6345 20.6761 54.1894C21.0341 55.72 21.6636 57.1025 22.5277 58.3245L25.7123 62.7683C26.6752 64.1138 27.3047 65.6814 27.5269 67.3108L28.2305 72.3347C28.3909 73.4209 29.1809 74.1616 30.1808 74.1616C30.2055 74.1616 30.2302 74.1616 30.2425 74.1616C31.2794 74.1245 32.4644 73.2234 32.6125 71.3719C32.8347 69.7302 33.6864 68.0638 35.217 66.2739C35.6244 65.7925 35.9453 65.2987 36.1798 64.7927L38.3894 59.8798C38.8337 58.88 39.525 58.0036 40.3891 57.3247L42.9936 55.288C44.0428 54.4733 44.228 52.955 43.4133 51.8934L38.4511 45.487C37.155 43.833 35.1183 43.2652 33.637 43.0923C32.8594 42.9936 32.1434 42.7961 31.5016 42.4752L27.1689 40.2903C26.2555 39.8336 25.1692 39.8953 24.3298 40.4384C22.9473 41.3519 21.4538 41.7962 19.9972 41.7592C19.3183 41.7345 18.627 41.3395 18.1703 40.71L14.9733 36.3527C13.9981 34.1184 14.3438 32.4027 16.0102 31.2547C16.8866 30.6498 17.9975 30.3412 19.2072 30.3412H23.7497C24.6631 30.3412 25.5148 29.9956 26.1691 29.3661L26.49 29.0575C26.5641 28.9834 26.6258 28.8847 26.6628 28.7736C27.0825 27.2306 29.1192 26.6134 32.1064 27.1319C32.81 27.2553 33.5136 27.1442 34.0938 26.8233C36.0317 25.737 37.4142 23.9348 37.6858 22.108C37.908 20.6761 37.4389 19.3059 36.365 18.1827L33.205 14.3438C31.7114 12.5416 29.9833 10.9616 28.0577 9.62844L24.552 7.20906C29.65 4.66625 35.4145 3.23438 41.5 3.23438C50.5356 3.23438 58.843 6.38203 65.3975 11.6405L56.8803 22.898C56.8556 22.935 56.8309 22.972 56.8063 23.0091C56.0039 24.7495 55.9052 26.1567 56.51 27.1936C57.1148 28.2305 58.3739 28.8353 60.1637 28.9834C60.2008 28.9958 63.9163 29.9339 65.1753 32.5508C65.7925 33.8222 65.7184 35.3281 64.9408 37.0192C64.4223 38.1548 63.583 39.2164 62.4473 40.1916L57.0902 44.7711C56.1273 45.5981 55.5102 46.7461 55.3497 47.9928C55.1522 49.4741 55.6336 50.9677 56.6334 52.0786C57.5962 53.1525 58.88 54.8683 59.4602 56.9914C60.065 59.2009 62.0894 60.6945 64.373 60.6945C64.5581 60.6945 64.7556 60.6822 64.9531 60.6575C65.2988 60.6205 65.6444 60.5711 66.0023 60.5094C68.1625 60.1514 70.0511 58.843 71.1744 56.9297L71.2731 56.7569C72.6803 54.3375 74.1492 51.8564 78.1239 52.6464C73.3222 68.323 58.7195 79.7656 41.5 79.7656Z"/>
</mask>
<path d="M79.4941 52.2638C80.4692 48.8445 81 45.2278 81 41.5C81 29.292 75.433 18.3678 66.7059 11.122C66.6813 11.0973 66.6566 11.0603 66.6319 11.0356C66.6072 11.0233 66.5948 11.0233 66.5702 11.0109C59.7441 5.38219 51.0047 2 41.5 2C34.8838 2 28.6378 3.64172 23.1448 6.5425C23.0708 6.56719 23.0091 6.60422 22.9473 6.64125C11.48 12.7638 3.3825 24.3792 2.17281 37.945C2.16047 37.982 2.16047 38.0191 2.16047 38.0561C2.06172 39.1917 2 40.3397 2 41.5C2 63.2867 19.7256 81 41.5 81C59.4848 81 74.6923 68.9031 79.4447 52.4242C79.457 52.3995 79.4817 52.3748 79.4817 52.3378C79.4941 52.3255 79.4941 52.3008 79.4941 52.2638ZM79.7656 41.5C79.7656 44.9439 79.2966 48.2767 78.4448 51.4614C73.5444 50.4492 71.6188 53.708 70.1992 56.1397L70.1005 56.3125C69.1623 57.9048 67.5947 59.0034 65.7925 59.2997C65.4592 59.3491 65.1383 59.3984 64.8173 59.4355C62.9041 59.6453 61.1512 58.4727 60.6575 56.6705C60.0033 54.3128 58.6084 52.4242 57.5592 51.2516C56.7939 50.3998 56.4359 49.2766 56.5841 48.1533C56.7075 47.2028 57.1766 46.3387 57.9048 45.7092L63.262 41.1297C64.5334 40.0434 65.4839 38.8338 66.0764 37.5377C67.0022 35.5009 67.0886 33.6494 66.2986 32.02C64.7927 28.897 60.6452 27.8355 60.3736 27.7737C58.917 27.6503 57.9789 27.243 57.5963 26.5888C57.2136 25.9222 57.3247 24.9223 57.9172 23.6016L66.3603 12.4428C74.5442 19.4541 79.7656 29.8722 79.7656 41.5ZM23.293 7.85094L27.3541 10.6406C29.1809 11.8997 30.835 13.4056 32.2545 15.1214L35.4639 18.985C36.3033 19.8614 36.6489 20.8489 36.4884 21.9105C36.2786 23.3423 35.1059 24.8359 33.5136 25.7247C33.1803 25.9098 32.7606 25.9716 32.3409 25.8975C28.7612 25.2803 26.2431 26.1567 25.5519 28.2675L25.342 28.465C24.9223 28.8723 24.3669 29.0945 23.7744 29.0945H19.2319C17.763 29.0945 16.4175 29.4895 15.3313 30.2302C14.0722 31.0942 12.1959 33.1186 13.887 36.9081C13.8994 36.9452 13.9241 36.9822 13.9488 37.0192L17.1952 41.4383C17.8988 42.3888 18.9109 42.9566 19.9848 42.9936C21.6759 43.0553 23.4287 42.5245 25.0334 41.4753C25.5025 41.1667 26.1197 41.1297 26.6381 41.3889L30.9708 43.5737C31.7361 43.9564 32.5878 44.2033 33.5136 44.3144C34.5381 44.4378 36.4144 44.8452 37.5006 46.24L42.4628 52.6464C42.8578 53.1648 42.7714 53.9055 42.253 54.3005L39.6484 56.3372C38.6239 57.1272 37.8092 58.1764 37.2784 59.3614L35.0689 64.2742C34.8838 64.6692 34.6245 65.0766 34.2912 65.4592C32.6002 67.4342 31.662 69.3105 31.3905 71.2238C31.3041 72.3594 30.7239 72.8902 30.2055 72.9148C29.7981 72.9148 29.5266 72.6309 29.4525 72.1495L28.7489 67.1256C28.4897 65.2987 27.7861 63.5336 26.7122 62.0277L23.5275 57.5839C22.7498 56.4977 22.1944 55.2509 21.8734 53.8808C20.6761 48.7828 18.3308 45.45 15.4423 44.7094C13.1958 44.2033 11.1344 42.6356 10.0358 40.6359C8.66563 38.1302 6.03641 36.797 3.46891 37.2414C4.87609 24.552 12.5292 13.7019 23.293 7.85094ZM41.5 79.7656C20.4045 79.7656 3.23438 62.5955 3.23438 41.5C3.23438 40.5002 3.28375 39.525 3.35781 38.5375C5.50563 38.0191 7.78922 39.1177 8.96187 41.2531C10.2209 43.5614 12.6033 45.3636 15.1584 45.9437C17.5408 46.5486 19.6022 49.6345 20.6761 54.1894C21.0341 55.72 21.6636 57.1025 22.5277 58.3245L25.7123 62.7683C26.6752 64.1138 27.3047 65.6814 27.5269 67.3108L28.2305 72.3347C28.3909 73.4209 29.1809 74.1616 30.1808 74.1616C30.2055 74.1616 30.2302 74.1616 30.2425 74.1616C31.2794 74.1245 32.4644 73.2234 32.6125 71.3719C32.8347 69.7302 33.6864 68.0638 35.217 66.2739C35.6244 65.7925 35.9453 65.2987 36.1798 64.7927L38.3894 59.8798C38.8337 58.88 39.525 58.0036 40.3891 57.3247L42.9936 55.288C44.0428 54.4733 44.228 52.955 43.4133 51.8934L38.4511 45.487C37.155 43.833 35.1183 43.2652 33.637 43.0923C32.8594 42.9936 32.1434 42.7961 31.5016 42.4752L27.1689 40.2903C26.2555 39.8336 25.1692 39.8953 24.3298 40.4384C22.9473 41.3519 21.4538 41.7962 19.9972 41.7592C19.3183 41.7345 18.627 41.3395 18.1703 40.71L14.9733 36.3527C13.9981 34.1184 14.3438 32.4027 16.0102 31.2547C16.8866 30.6498 17.9975 30.3412 19.2072 30.3412H23.7497C24.6631 30.3412 25.5148 29.9956 26.1691 29.3661L26.49 29.0575C26.5641 28.9834 26.6258 28.8847 26.6628 28.7736C27.0825 27.2306 29.1192 26.6134 32.1064 27.1319C32.81 27.2553 33.5136 27.1442 34.0938 26.8233C36.0317 25.737 37.4142 23.9348 37.6858 22.108C37.908 20.6761 37.4389 19.3059 36.365 18.1827L33.205 14.3438C31.7114 12.5416 29.9833 10.9616 28.0577 9.62844L24.552 7.20906C29.65 4.66625 35.4145 3.23438 41.5 3.23438C50.5356 3.23438 58.843 6.38203 65.3975 11.6405L56.8803 22.898C56.8556 22.935 56.8309 22.972 56.8063 23.0091C56.0039 24.7495 55.9052 26.1567 56.51 27.1936C57.1148 28.2305 58.3739 28.8353 60.1637 28.9834C60.2008 28.9958 63.9163 29.9339 65.1753 32.5508C65.7925 33.8222 65.7184 35.3281 64.9408 37.0192C64.4223 38.1548 63.583 39.2164 62.4473 40.1916L57.0902 44.7711C56.1273 45.5981 55.5102 46.7461 55.3497 47.9928C55.1522 49.4741 55.6336 50.9677 56.6334 52.0786C57.5962 53.1525 58.88 54.8683 59.4602 56.9914C60.065 59.2009 62.0894 60.6945 64.373 60.6945C64.5581 60.6945 64.7556 60.6822 64.9531 60.6575C65.2988 60.6205 65.6444 60.5711 66.0023 60.5094C68.1625 60.1514 70.0511 58.843 71.1744 56.9297L71.2731 56.7569C72.6803 54.3375 74.1492 51.8564 78.1239 52.6464C73.3222 68.323 58.7195 79.7656 41.5 79.7656Z" fill="#6E7764"/>
<path d="M79.4941 52.2638C80.4692 48.8445 81 45.2278 81 41.5C81 29.292 75.433 18.3678 66.7059 11.122C66.6813 11.0973 66.6566 11.0603 66.6319 11.0356C66.6072 11.0233 66.5948 11.0233 66.5702 11.0109C59.7441 5.38219 51.0047 2 41.5 2C34.8838 2 28.6378 3.64172 23.1448 6.5425C23.0708 6.56719 23.0091 6.60422 22.9473 6.64125C11.48 12.7638 3.3825 24.3792 2.17281 37.945C2.16047 37.982 2.16047 38.0191 2.16047 38.0561C2.06172 39.1917 2 40.3397 2 41.5C2 63.2867 19.7256 81 41.5 81C59.4848 81 74.6923 68.9031 79.4447 52.4242C79.457 52.3995 79.4817 52.3748 79.4817 52.3378C79.4941 52.3255 79.4941 52.3008 79.4941 52.2638ZM79.7656 41.5C79.7656 44.9439 79.2966 48.2767 78.4448 51.4614C73.5444 50.4492 71.6188 53.708 70.1992 56.1397L70.1005 56.3125C69.1623 57.9048 67.5947 59.0034 65.7925 59.2997C65.4592 59.3491 65.1383 59.3984 64.8173 59.4355C62.9041 59.6453 61.1512 58.4727 60.6575 56.6705C60.0033 54.3128 58.6084 52.4242 57.5592 51.2516C56.7939 50.3998 56.4359 49.2766 56.5841 48.1533C56.7075 47.2028 57.1766 46.3387 57.9048 45.7092L63.262 41.1297C64.5334 40.0434 65.4839 38.8338 66.0764 37.5377C67.0022 35.5009 67.0886 33.6494 66.2986 32.02C64.7927 28.897 60.6452 27.8355 60.3736 27.7737C58.917 27.6503 57.9789 27.243 57.5963 26.5888C57.2136 25.9222 57.3247 24.9223 57.9172 23.6016L66.3603 12.4428C74.5442 19.4541 79.7656 29.8722 79.7656 41.5ZM23.293 7.85094L27.3541 10.6406C29.1809 11.8997 30.835 13.4056 32.2545 15.1214L35.4639 18.985C36.3033 19.8614 36.6489 20.8489 36.4884 21.9105C36.2786 23.3423 35.1059 24.8359 33.5136 25.7247C33.1803 25.9098 32.7606 25.9716 32.3409 25.8975C28.7612 25.2803 26.2431 26.1567 25.5519 28.2675L25.342 28.465C24.9223 28.8723 24.3669 29.0945 23.7744 29.0945H19.2319C17.763 29.0945 16.4175 29.4895 15.3313 30.2302C14.0722 31.0942 12.1959 33.1186 13.887 36.9081C13.8994 36.9452 13.9241 36.9822 13.9488 37.0192L17.1952 41.4383C17.8988 42.3888 18.9109 42.9566 19.9848 42.9936C21.6759 43.0553 23.4287 42.5245 25.0334 41.4753C25.5025 41.1667 26.1197 41.1297 26.6381 41.3889L30.9708 43.5737C31.7361 43.9564 32.5878 44.2033 33.5136 44.3144C34.5381 44.4378 36.4144 44.8452 37.5006 46.24L42.4628 52.6464C42.8578 53.1648 42.7714 53.9055 42.253 54.3005L39.6484 56.3372C38.6239 57.1272 37.8092 58.1764 37.2784 59.3614L35.0689 64.2742C34.8838 64.6692 34.6245 65.0766 34.2912 65.4592C32.6002 67.4342 31.662 69.3105 31.3905 71.2238C31.3041 72.3594 30.7239 72.8902 30.2055 72.9148C29.7981 72.9148 29.5266 72.6309 29.4525 72.1495L28.7489 67.1256C28.4897 65.2987 27.7861 63.5336 26.7122 62.0277L23.5275 57.5839C22.7498 56.4977 22.1944 55.2509 21.8734 53.8808C20.6761 48.7828 18.3308 45.45 15.4423 44.7094C13.1958 44.2033 11.1344 42.6356 10.0358 40.6359C8.66563 38.1302 6.03641 36.797 3.46891 37.2414C4.87609 24.552 12.5292 13.7019 23.293 7.85094ZM41.5 79.7656C20.4045 79.7656 3.23438 62.5955 3.23438 41.5C3.23438 40.5002 3.28375 39.525 3.35781 38.5375C5.50563 38.0191 7.78922 39.1177 8.96187 41.2531C10.2209 43.5614 12.6033 45.3636 15.1584 45.9437C17.5408 46.5486 19.6022 49.6345 20.6761 54.1894C21.0341 55.72 21.6636 57.1025 22.5277 58.3245L25.7123 62.7683C26.6752 64.1138 27.3047 65.6814 27.5269 67.3108L28.2305 72.3347C28.3909 73.4209 29.1809 74.1616 30.1808 74.1616C30.2055 74.1616 30.2302 74.1616 30.2425 74.1616C31.2794 74.1245 32.4644 73.2234 32.6125 71.3719C32.8347 69.7302 33.6864 68.0638 35.217 66.2739C35.6244 65.7925 35.9453 65.2987 36.1798 64.7927L38.3894 59.8798C38.8337 58.88 39.525 58.0036 40.3891 57.3247L42.9936 55.288C44.0428 54.4733 44.228 52.955 43.4133 51.8934L38.4511 45.487C37.155 43.833 35.1183 43.2652 33.637 43.0923C32.8594 42.9936 32.1434 42.7961 31.5016 42.4752L27.1689 40.2903C26.2555 39.8336 25.1692 39.8953 24.3298 40.4384C22.9473 41.3519 21.4538 41.7962 19.9972 41.7592C19.3183 41.7345 18.627 41.3395 18.1703 40.71L14.9733 36.3527C13.9981 34.1184 14.3438 32.4027 16.0102 31.2547C16.8866 30.6498 17.9975 30.3412 19.2072 30.3412H23.7497C24.6631 30.3412 25.5148 29.9956 26.1691 29.3661L26.49 29.0575C26.5641 28.9834 26.6258 28.8847 26.6628 28.7736C27.0825 27.2306 29.1192 26.6134 32.1064 27.1319C32.81 27.2553 33.5136 27.1442 34.0938 26.8233C36.0317 25.737 37.4142 23.9348 37.6858 22.108C37.908 20.6761 37.4389 19.3059 36.365 18.1827L33.205 14.3438C31.7114 12.5416 29.9833 10.9616 28.0577 9.62844L24.552 7.20906C29.65 4.66625 35.4145 3.23438 41.5 3.23438C50.5356 3.23438 58.843 6.38203 65.3975 11.6405L56.8803 22.898C56.8556 22.935 56.8309 22.972 56.8063 23.0091C56.0039 24.7495 55.9052 26.1567 56.51 27.1936C57.1148 28.2305 58.3739 28.8353 60.1637 28.9834C60.2008 28.9958 63.9163 29.9339 65.1753 32.5508C65.7925 33.8222 65.7184 35.3281 64.9408 37.0192C64.4223 38.1548 63.583 39.2164 62.4473 40.1916L57.0902 44.7711C56.1273 45.5981 55.5102 46.7461 55.3497 47.9928C55.1522 49.4741 55.6336 50.9677 56.6334 52.0786C57.5962 53.1525 58.88 54.8683 59.4602 56.9914C60.065 59.2009 62.0894 60.6945 64.373 60.6945C64.5581 60.6945 64.7556 60.6822 64.9531 60.6575C65.2988 60.6205 65.6444 60.5711 66.0023 60.5094C68.1625 60.1514 70.0511 58.843 71.1744 56.9297L71.2731 56.7569C72.6803 54.3375 74.1492 51.8564 78.1239 52.6464C73.3222 68.323 58.7195 79.7656 41.5 79.7656Z" stroke="#6E7764" stroke-width="3" mask="url(#path-1-outside-1_3016_853)"/>
</g>
</g>
</svg>
