<svg width="59" height="84" viewBox="0 0 59 84" fill="none" xmlns="http://www.w3.org/2000/svg">
<g id="Group 3">
<path id="path1" d="M14.0782 84H53.7639C56.437 84 58.5961 81.7001 58.5961 78.8527V5.14733C58.5961 2.29987 56.437 0 53.7639 0H5.23626C2.56312 0 0.404053 2.29987 0.404053 5.14733V68.12L14.0782 84ZM12.9472 76.2243L6.88126 69.2151H12.9472V76.2243ZM4.41375 5.14733C4.41375 4.70926 4.72219 4.27119 5.23626 4.27119H53.8667C54.278 4.27119 54.6892 4.59974 54.6892 5.14733V78.8527C54.6892 79.2907 54.3808 79.7288 53.8667 79.7288H17.0597V67.1343C17.0597 65.9296 16.1344 64.9439 15.0035 64.9439H4.41375V5.14733Z" fill="#6E7764"/>
<path id="path2" d="M45.5389 59.1396V57.8254C46.0529 57.6064 46.3614 57.1683 46.4642 56.6207C46.4642 56.4017 46.4642 56.2921 46.3614 56.0731C46.4642 55.9636 46.4642 55.7446 46.4642 55.5255C46.4642 55.197 46.3614 54.9779 46.1557 54.7589C49.0345 52.8971 49.9598 48.7354 48.212 45.6689C46.4642 42.6025 42.5573 41.6168 39.6785 43.4786C36.7998 45.3404 35.8745 49.5021 37.6223 52.5685C38.1364 53.4447 38.856 54.2113 39.6785 54.7589C39.4729 54.9779 39.3701 55.197 39.3701 55.5255C39.3701 55.7446 39.3701 55.8541 39.4729 56.0731C39.3701 56.1826 39.3701 56.4017 39.3701 56.6207C39.3701 57.1683 39.7814 57.6064 40.2954 57.8254V59.1396C35.2576 59.9062 34.3323 62.7537 34.3323 63.4108V65.2726C34.3323 65.9297 34.8463 66.4773 35.4632 66.4773H50.2683C50.8851 66.4773 51.502 65.9297 51.502 65.2726V63.4108C51.3992 62.7537 50.4739 59.9062 45.5389 59.1396ZM42.8657 45.1214C45.0248 45.1214 46.6698 46.9831 46.6698 49.1735C46.6698 51.3639 44.922 53.2257 42.8657 53.2257C40.7067 53.2257 39.0617 51.3639 39.0617 49.1735C38.9589 46.8736 40.7067 45.1214 42.8657 45.1214Z" fill="#6E7764"/>
<path id="path3" d="M49.4459 67.7913H36.0802C35.4633 67.7913 34.8464 68.3389 34.8464 69.1055C34.8464 69.8721 35.3605 70.4197 36.0802 70.4197H49.4459C50.0627 70.4197 50.6796 69.8721 50.6796 69.1055C50.6796 68.3389 50.1655 67.7913 49.4459 67.7913Z" fill="#6E7764"/>
<path id="path4" d="M47.8001 15.3325C47.8001 16.2086 47.0805 16.9752 46.2579 16.9752H11.7128C10.8903 16.9752 10.1707 16.2086 10.1707 15.3325C10.1707 14.4563 10.8903 13.6897 11.7128 13.6897H46.1551C47.0804 13.7992 47.8001 14.4563 47.8001 15.3325Z" fill="#6E7764"/>
<path id="path5" d="M47.8001 25.9552C47.8001 26.8313 47.0805 27.598 46.2579 27.598H11.7128C10.8903 27.598 10.1707 26.8313 10.1707 25.9552C10.1707 25.0791 10.8903 24.3124 11.7128 24.3124H46.1551C47.0804 24.3124 47.8001 24.9695 47.8001 25.9552Z" fill="#6E7764"/>
<path id="path6" d="M31.2475 36.5789C31.3503 37.236 31.0419 38.0026 30.425 38.2217H11.0962C10.2737 37.6741 9.96528 36.4694 10.4793 35.5933C10.5822 35.3742 10.7878 35.1552 11.0962 34.9362H30.425C31.0419 35.2647 31.4532 35.9218 31.2475 36.5789Z" fill="#6E7764"/>
</g>
</svg>
