<svg width="52" height="65" viewBox="0 0 52 65" fill="none" xmlns="http://www.w3.org/2000/svg">
<circle cx="26" cy="26.8064" r="26" fill="#6E7764"/>
<path d="M18.2598 28.0835H15.7031L15.6895 26.6753H17.8359C18.2142 26.6753 18.5241 26.6274 18.7656 26.5317C19.0072 26.4315 19.1872 26.2879 19.3057 26.1011C19.4287 25.9097 19.4902 25.6772 19.4902 25.4038C19.4902 25.0939 19.431 24.8433 19.3125 24.6519C19.1986 24.4604 19.0186 24.3215 18.7725 24.2349C18.5309 24.1483 18.2188 24.105 17.8359 24.105H16.4141V32.4517H14.3633V22.4985H17.8359C18.4147 22.4985 18.932 22.5532 19.3877 22.6626C19.848 22.772 20.2376 22.9383 20.5566 23.1616C20.8757 23.3849 21.1195 23.6675 21.2881 24.0093C21.4567 24.3465 21.541 24.7476 21.541 25.2124C21.541 25.6226 21.4476 26.0008 21.2607 26.3472C21.0785 26.6935 20.7891 26.9761 20.3926 27.1948C20.0007 27.4136 19.488 27.5343 18.8545 27.5571L18.2598 28.0835ZM18.1709 32.4517H15.1426L15.9424 30.8521H18.1709C18.5309 30.8521 18.8249 30.7951 19.0527 30.6812C19.2806 30.5627 19.4492 30.4032 19.5586 30.2026C19.668 30.0021 19.7227 29.772 19.7227 29.5122C19.7227 29.2205 19.6725 28.9676 19.5723 28.7534C19.4766 28.5392 19.3216 28.3752 19.1074 28.2612C18.8932 28.1427 18.6107 28.0835 18.2598 28.0835H16.2842L16.2979 26.6753H18.7588L19.2305 27.229C19.8366 27.2199 20.3242 27.327 20.6934 27.5503C21.0671 27.769 21.3382 28.0539 21.5068 28.4048C21.68 28.7557 21.7666 29.1317 21.7666 29.5327C21.7666 30.1707 21.6276 30.7085 21.3496 31.146C21.0716 31.5789 20.6637 31.9048 20.126 32.1235C19.5928 32.3423 18.9411 32.4517 18.1709 32.4517ZM23.2773 31.5015C23.2773 31.2098 23.3776 30.966 23.5781 30.77C23.7832 30.5741 24.0544 30.4761 24.3916 30.4761C24.7288 30.4761 24.9977 30.5741 25.1982 30.77C25.4033 30.966 25.5059 31.2098 25.5059 31.5015C25.5059 31.7931 25.4033 32.0369 25.1982 32.2329C24.9977 32.4289 24.7288 32.5269 24.3916 32.5269C24.0544 32.5269 23.7832 32.4289 23.5781 32.2329C23.3776 32.0369 23.2773 31.7931 23.2773 31.5015ZM35.2607 30.8521V32.4517H28.0898V30.8521H35.2607ZM28.6982 30.8521V34.8921H26.7705L26.6611 30.8521H28.6982ZM36.7373 30.8521L36.5596 34.8989H34.6797V30.8521H36.7373ZM34.1328 22.4985V24.105H29.3408V22.4985H34.1328ZM35.5957 22.4985V32.4517H33.5518V22.4985H35.5957ZM29.0879 22.4985H31.1387L30.8721 26.5522C30.8311 27.2222 30.7581 27.8146 30.6533 28.3296C30.5531 28.84 30.43 29.2889 30.2842 29.6763C30.1429 30.0636 29.9857 30.4032 29.8125 30.6948C29.6393 30.9819 29.457 31.2326 29.2656 31.4468C29.0742 31.6564 28.8805 31.8433 28.6846 32.0073C28.4886 32.1668 28.2972 32.3149 28.1104 32.4517H26.9346V30.8521H27.3926C27.5247 30.7427 27.6637 30.5923 27.8096 30.4009C27.96 30.2095 28.1012 29.952 28.2334 29.6284C28.3701 29.3003 28.4886 28.8856 28.5889 28.3843C28.6937 27.883 28.7712 27.2723 28.8213 26.5522L29.0879 22.4985ZM14.3359 55.5015C14.3359 55.2098 14.4362 54.966 14.6367 54.77C14.8418 54.5741 15.113 54.4761 15.4502 54.4761C15.7874 54.4761 16.0563 54.5741 16.2568 54.77C16.4619 54.966 16.5645 55.2098 16.5645 55.5015C16.5645 55.7931 16.4619 56.0369 16.2568 56.2329C16.0563 56.4289 15.7874 56.5269 15.4502 56.5269C15.113 56.5269 14.8418 56.4289 14.6367 56.2329C14.4362 56.0369 14.3359 55.7931 14.3359 55.5015Z" fill="white"/>
</svg>
