<svg width="590" height="218" viewBox="0 0 590 218" fill="none" xmlns="http://www.w3.org/2000/svg">
<path d="M0.666667 212C0.666667 214.946 3.05448 217.333 6 217.333C8.94552 217.333 11.3333 214.946 11.3333 212C11.3333 209.054 8.94552 206.667 6 206.667C3.05448 206.667 0.666667 209.054 0.666667 212ZM246.5 1V0H246.124L245.84 0.248295L246.5 1ZM6.6595 212.752L8.16262 211.433L6.84363 209.93L5.3405 211.248L6.6595 212.752ZM11.1689 208.795L14.1751 206.158L12.8561 204.655L9.84988 207.292L11.1689 208.795ZM17.1814 203.52L20.1876 200.883L18.8686 199.38L15.8624 202.017L17.1814 203.52ZM23.1939 198.245L26.2001 195.608L24.8811 194.105L21.8749 196.742L23.1939 198.245ZM29.2064 192.97L32.2126 190.333L30.8936 188.83L27.8874 191.467L29.2064 192.97ZM35.2189 187.695L38.2251 185.058L36.9061 183.555L33.8999 186.192L35.2189 187.695ZM41.2314 182.42L44.2376 179.783L42.9186 178.28L39.9124 180.917L41.2314 182.42ZM47.2439 177.145L50.2501 174.508L48.9311 173.005L45.9249 175.642L47.2439 177.145ZM53.2564 171.87L56.2626 169.233L54.9436 167.73L51.9374 170.367L53.2564 171.87ZM59.2689 166.595L62.2751 163.958L60.9561 162.455L57.9499 165.092L59.2689 166.595ZM65.2814 161.32L68.2876 158.683L66.9686 157.18L63.9624 159.817L65.2814 161.32ZM71.2939 156.045L74.3001 153.408L72.9811 151.905L69.9749 154.542L71.2939 156.045ZM77.3064 150.77L80.3126 148.133L78.9936 146.63L75.9874 149.267L77.3064 150.77ZM83.3189 145.495L86.3251 142.858L85.0061 141.355L81.9999 143.992L83.3189 145.495ZM89.3314 140.22L92.3376 137.583L91.0186 136.08L88.0124 138.717L89.3314 140.22ZM95.3439 134.945L98.3501 132.308L97.0311 130.805L94.0249 133.442L95.3439 134.945ZM101.356 129.67L104.363 127.033L103.044 125.53L100.037 128.167L101.356 129.67ZM107.369 124.395L110.375 121.758L109.056 120.255L106.05 122.892L107.369 124.395ZM113.381 119.12L116.388 116.483L115.069 114.98L112.062 117.617L113.381 119.12ZM119.394 113.845L122.4 111.208L121.081 109.705L118.075 112.342L119.394 113.845ZM125.406 108.57L128.413 105.933L127.094 104.43L124.087 107.067L125.406 108.57ZM131.419 103.295L134.425 100.658L133.106 99.1546L130.1 101.792L131.419 103.295ZM137.431 98.0205L140.438 95.383L139.119 93.8796L136.112 96.5171L137.431 98.0205ZM143.444 92.7455L146.45 90.108L145.131 88.6046L142.125 91.2421L143.444 92.7455ZM149.456 87.4705L152.463 84.833L151.144 83.3296L148.137 85.9671L149.456 87.4705ZM155.469 82.1955L158.475 79.558L157.156 78.0546L154.15 80.6921L155.469 82.1955ZM161.481 76.9205L164.488 74.283L163.169 72.7796L160.162 75.4171L161.481 76.9205ZM167.494 71.6455L170.5 69.008L169.181 67.5046L166.175 70.1421L167.494 71.6455ZM173.506 66.3705L176.513 63.733L175.194 62.2296L172.187 64.8671L173.506 66.3705ZM179.519 61.0955L182.525 58.458L181.206 56.9546L178.2 59.5921L179.519 61.0955ZM185.531 55.8205L188.538 53.1831L187.219 51.6796L184.212 54.3171L185.531 55.8205ZM191.544 50.5456L194.55 47.9081L193.231 46.4046L190.225 49.0421L191.544 50.5456ZM197.556 45.2706L200.562 42.6331L199.243 41.1297L196.237 43.7671L197.556 45.2706ZM203.569 39.9956L206.575 37.3581L205.256 35.8547L202.25 38.4922L203.569 39.9956ZM209.581 34.7206L212.587 32.0831L211.268 30.5797L208.262 33.2172L209.581 34.7206ZM215.594 29.4456L218.6 26.8081L217.281 25.3047L214.275 27.9422L215.594 29.4456ZM221.606 24.1706L224.612 21.5331L223.293 20.0297L220.287 22.6672L221.606 24.1706ZM227.619 18.8956L230.625 16.2581L229.306 14.7547L226.3 17.3922L227.619 18.8956ZM233.631 13.6206L236.637 10.9831L235.318 9.47971L232.312 12.1172L233.631 13.6206ZM239.644 8.34562L242.65 5.70812L241.331 4.20471L238.325 6.84221L239.644 8.34562ZM245.656 3.07062L247.16 1.7517L245.84 0.248295L244.337 1.56721L245.656 3.07062ZM246.5 2H248.497V0H246.5V2ZM252.491 2H256.485V0H252.491V2ZM260.48 2H264.474V0H260.48V2ZM268.468 2H272.462V0H268.468V2ZM276.456 2H280.451V0H276.456V2ZM284.445 2H288.439V0H284.445V2ZM292.433 2H296.427V0H292.433V2ZM300.422 2H304.416V0H300.422V2ZM308.41 2H312.404V0H308.41V2ZM316.398 2H320.392V0H316.398V2ZM324.387 2H328.381V0H324.387V2ZM332.375 2H336.369V0H332.375V2ZM340.363 2H344.358V0H340.363V2ZM348.352 2H352.346V0H348.352V2ZM356.34 2H360.334V0H356.34V2ZM364.328 2H368.323V0H364.328V2ZM372.317 2H376.311V0H372.317V2ZM380.305 2H384.299V0H380.305V2ZM388.294 2H392.288V0H388.294V2ZM396.282 2H400.276V0H396.282V2ZM404.27 2H408.265V0H404.27V2ZM412.259 2H416.253V0H412.259V2ZM420.247 2H424.241V0H420.247V2ZM428.235 2H432.23V0H428.235V2ZM436.224 2H440.218V0H436.224V2ZM444.212 2H448.206V0H444.212V2ZM452.201 2H456.195V0H452.201V2ZM460.189 2H464.183V0H460.189V2ZM468.177 2H472.172V0H468.177V2ZM476.166 2H480.16V0H476.166V2ZM484.154 2H488.148V0H484.154V2ZM492.142 2H496.137V0H492.142V2ZM500.131 2H504.125V0H500.131V2ZM508.119 2H512.113V0H508.119V2ZM516.108 2H520.102V0H516.108V2ZM524.096 2H528.09V0H524.096V2ZM532.084 2H536.078V0H532.084V2ZM540.073 2H544.067V0H540.073V2ZM548.061 2H552.055V0H548.061V2ZM556.049 2H560.043V0H556.049V2ZM564.038 2H568.032V0H564.038V2ZM572.026 2H576.02V0H572.026V2ZM580.014 2H584.008V0H580.014V2ZM588.003 2H590V0H588.003V2Z" fill="#6B6D52"/>
</svg>
